<?xml version="1.0" encoding="utf-8"?>
<!-- Generator: Adobe Illustrator 16.0.0, SVG Export Plug-In . SVG Version: 6.00 Build 0)  -->
<!DOCTYPE svg PUBLIC "-//W3C//DTD SVG 1.1//EN" "http://www.w3.org/Graphics/SVG/1.1/DTD/svg11.dtd">
<svg version="1.1" id="Layer_1" xmlns="http://www.w3.org/2000/svg" xmlns:xlink="http://www.w3.org/1999/xlink" x="0px" y="0px"
	 width="590.374px" height="239.503px" viewBox="0 0 590.374 239.503" enable-background="new 0 0 590.374 239.503"
	 xml:space="preserve">
<g>
	<text transform="matrix(1 0 0 1 230.436 105.1914)"><tspan x="0" y="0" font-family="'Bitter-Regular'" font-size="89.8308">f</tspan><tspan x="40.153" y="0" font-family="'Bitter-Regular'" font-size="89.8308" letter-spacing="-1">a</tspan><tspan x="89.649" y="0" font-family="'Bitter-Regular'" font-size="89.8308" letter-spacing="1">c</tspan><tspan x="136.81" y="0" font-family="'Bitter-Regular'" font-size="89.8308" letter-spacing="4">u</tspan><tspan x="199.78" y="0" font-family="'Bitter-Regular'" font-size="89.8308">n</tspan><tspan x="259.248" y="0" font-family="'Bitter-Regular'" font-size="89.8308" letter-spacing="-2">d</tspan><tspan x="312.427" y="0" font-family="'Bitter-Regular'" font-size="89.8308" letter-spacing="-1">o </tspan><tspan x="0" y="94.736" font-family="'Bitter-Regular'" font-size="89.8308" letter-spacing="1">e</tspan><tspan x="49.137" y="94.736" font-family="'Bitter-Regular'" font-size="89.8308">l</tspan><tspan x="78.331" y="94.736" font-family="'Bitter-Regular'" font-size="89.8308" letter-spacing="-1">ement</tspan></text>
	<g>
		<path fill="#FFBB1B" stroke="#FFBB1B" stroke-miterlimit="10" d="M116.602,77.477c-8.469,0-17.964-5.6-28.3-16.711
			c-10.855-11.67-20.239-16.606-27.887-14.659c-11.108,2.82-15.535,19.539-15.577,19.71c-0.356,1.389-1.766,2.223-3.155,1.869
			c-1.385-0.358-2.226-1.766-1.871-3.153c0.207-0.81,5.214-19.858,19.308-23.452c9.633-2.458,20.727,2.978,32.982,16.151
			c10.858,11.673,20.219,16.6,27.818,14.638c5.656-1.457,9.52-6.661,11.764-10.768c2.542-4.651,3.621-8.925,3.633-8.966
			c0.347-1.393,1.756-2.237,3.146-1.892s2.235,1.755,1.888,3.146c-0.202,0.812-5.11,19.887-19.133,23.505
			C119.714,77.282,118.176,77.477,116.602,77.477z"/>
		<path fill="#FFBB1B" d="M81.377,239.503c-2.918,0-5.947-0.163-8.999-0.484c-33.502-3.523-55.648-24.281-65.821-61.704
			c-7.189-26.445-8.453-60.543-3.86-104.241c2.036-19.367,7.152-35.2,15.204-47.053C25.249,15.207,35.258,7.372,47.654,2.729
			c0.987-0.366,2.087,0.114,2.483,1.091c0.398,0.975-0.054,2.09-1.021,2.514c-9.954,4.378-18.003,11.331-23.927,20.662
			c-6.582,10.367-10.802,24.057-12.551,40.694c-4.245,40.377-3.101,71.797,3.494,96.058c4.256,15.644,10.86,28.132,19.63,37.121
			c9.916,10.159,22.921,16.147,38.658,17.803c2.719,0.285,5.418,0.429,8.021,0.429c0.005,0,0.007,0,0.01,0
			c14.106,0,26.546-4.294,36.973-12.768c9.24-7.505,17.2-18.524,23.655-32.75c12.831-28.263,17.823-64.918,20.461-90.028
			c3.47-33.014-3.979-55.427-22.775-68.528c-0.862-0.602-1.09-1.777-0.515-2.663c0.576-0.879,1.75-1.142,2.646-0.59
			c23.744,14.581,33.309,40.458,29.248,79.112c-5.956,56.667-15.542,82.813-22.234,97.556c-7.167,15.786-16.06,28.065-26.432,36.496
			C111.584,234.602,97.42,239.503,81.377,239.503z"/>
	</g>
</g>
</svg>
