<?xml version="1.0" encoding="utf-8"?>
<!-- Generator: Adobe Illustrator 16.0.0, SVG Export Plug-In . SVG Version: 6.00 Build 0)  -->
<!DOCTYPE svg PUBLIC "-//W3C//DTD SVG 1.1//EN" "http://www.w3.org/Graphics/SVG/1.1/DTD/svg11.dtd">
<svg version="1.1" id="Layer_1" xmlns="http://www.w3.org/2000/svg" xmlns:xlink="http://www.w3.org/1999/xlink" x="0px" y="0px"
	 width="1007.069px" height="365.217px" viewBox="0 0 1007.069 365.217" enable-background="new 0 0 1007.069 365.217"
	 xml:space="preserve">
<text transform="matrix(1 0 0 1 1982.4824 372.7168)"><tspan x="0" y="0" font-family="'Bitter-Regular'" font-size="44">facundo </tspan><tspan x="0" y="52.8" font-family="'Bitter-Regular'" font-size="44">element</tspan></text>
<text transform="matrix(1 0 0 1 1982.4824 622.0957)" font-family="'Bitter-Regular'" font-size="94">fe</text>
<g>
	<text transform="matrix(1 0 0 1 211.5225 213.5264)"><tspan x="0" y="0" font-family="'Bitter-Regular'" font-size="88.5335">f</tspan><tspan x="39.662" y="0" font-family="'Bitter-Regular'" font-size="88.5335" letter-spacing="-1">a</tspan><tspan x="88.531" y="0" font-family="'Bitter-Regular'" font-size="88.5335" letter-spacing="1">c</tspan><tspan x="135.1" y="0" font-family="'Bitter-Regular'" font-size="88.5335" letter-spacing="4">u</tspan><tspan x="197.25" y="0" font-family="'Bitter-Regular'" font-size="88.5335">n</tspan><tspan x="255.947" y="0" font-family="'Bitter-Regular'" font-size="88.5335" letter-spacing="-1">d</tspan><tspan x="308.446" y="0" font-family="'Bitter-Regular'" font-size="88.5335" letter-spacing="-1">o </tspan><tspan x="376.793" y="0" font-family="'Bitter-Regular'" font-size="88.5335" letter-spacing="1">e</tspan><tspan x="425.309" y="0" font-family="'Bitter-Regular'" font-size="88.5335">l</tspan><tspan x="454.17" y="0" font-family="'Bitter-Regular'" font-size="88.5335" letter-spacing="-1">ement</tspan></text>
	<g>
		<path fill="#FFBB1B" stroke="#FFBB1B" stroke-miterlimit="10" d="M132.603,162.836c-3.843,0-8.151-2.542-12.841-7.583
			c-4.925-5.296-9.183-7.535-12.653-6.652c-5.041,1.28-7.049,8.867-7.067,8.943c-0.163,0.63-0.802,1.009-1.432,0.848
			c-0.628-0.162-1.01-0.802-0.849-1.431c0.094-0.367,2.366-9.01,8.761-10.641c4.371-1.115,9.404,1.351,14.965,7.327
			c4.926,5.298,9.174,7.533,12.622,6.642c2.566-0.661,4.319-3.022,5.337-4.886c1.154-2.109,1.643-4.049,1.649-4.068
			c0.157-0.631,0.797-1.015,1.428-0.857c0.63,0.157,1.014,0.796,0.856,1.427c-0.092,0.368-2.319,9.023-8.682,10.665
			C134.015,162.748,133.317,162.836,132.603,162.836z"/>
		<path fill="#FFBB1B" d="M116.62,236.353c-1.323,0-2.698-0.074-4.083-0.22c-15.201-1.598-25.25-11.017-29.865-27.997
			c-3.262-11.999-3.835-27.471-1.751-47.297c0.923-8.789,3.246-15.972,6.898-21.351c3.334-4.907,7.875-8.461,13.5-10.567
			c0.447-0.167,0.947,0.052,1.126,0.495c0.181,0.442-0.024,0.948-0.462,1.14c-4.517,1.987-8.169,5.143-10.857,9.375
			c-2.986,4.706-4.901,10.917-5.695,18.466c-1.926,18.319-1.407,32.576,1.585,43.584c1.932,7.098,4.928,12.765,8.907,16.844
			c4.5,4.609,10.401,7.326,17.541,8.077c1.233,0.129,2.458,0.195,3.639,0.195c0.002,0,0.003,0,0.004,0
			c6.401,0,12.044-1.949,16.777-5.794c4.191-3.405,7.803-8.405,10.733-14.859c5.821-12.824,8.086-29.456,9.283-40.85
			c1.574-14.979-1.805-25.149-10.333-31.093c-0.392-0.273-0.495-0.807-0.234-1.208c0.262-0.398,0.794-0.518,1.201-0.267
			c10.773,6.615,15.114,18.357,13.27,35.896c-2.702,25.711-7.051,37.576-10.088,44.264c-3.251,7.164-7.287,12.735-11.993,16.56
			C130.327,234.129,123.9,236.353,116.62,236.353z"/>
	</g>
</g>
<g>
	<text transform="matrix(1 0 0 1 430.0527 694.9141)"><tspan x="0" y="0" font-family="'Bitter-Regular'" font-size="89.8308">f</tspan><tspan x="40.153" y="0" font-family="'Bitter-Regular'" font-size="89.8308" letter-spacing="-1">a</tspan><tspan x="89.649" y="0" font-family="'Bitter-Regular'" font-size="89.8308" letter-spacing="1">c</tspan><tspan x="136.81" y="0" font-family="'Bitter-Regular'" font-size="89.8308" letter-spacing="4">u</tspan><tspan x="199.78" y="0" font-family="'Bitter-Regular'" font-size="89.8308">n</tspan><tspan x="259.248" y="0" font-family="'Bitter-Regular'" font-size="89.8308" letter-spacing="-2">d</tspan><tspan x="312.427" y="0" font-family="'Bitter-Regular'" font-size="89.8308" letter-spacing="-1">o </tspan><tspan x="0" y="94.736" font-family="'Bitter-Regular'" font-size="89.8308" letter-spacing="1">e</tspan><tspan x="49.137" y="94.736" font-family="'Bitter-Regular'" font-size="89.8308">l</tspan><tspan x="78.331" y="94.736" font-family="'Bitter-Regular'" font-size="89.8308" letter-spacing="-1">ement</tspan></text>
	<g>
		<path fill="#FFBB1B" stroke="#FFBB1B" stroke-miterlimit="10" d="M316.218,667.199c-8.469,0-17.964-5.6-28.3-16.711
			c-10.855-11.67-20.239-16.606-27.887-14.659c-11.108,2.82-15.535,19.539-15.577,19.71c-0.356,1.389-1.766,2.223-3.155,1.869
			c-1.385-0.358-2.226-1.766-1.871-3.153c0.207-0.81,5.214-19.858,19.308-23.452c9.633-2.458,20.727,2.978,32.982,16.151
			c10.858,11.673,20.219,16.6,27.818,14.638c5.656-1.457,9.52-6.661,11.764-10.768c2.542-4.651,3.621-8.925,3.633-8.966
			c0.347-1.393,1.756-2.237,3.146-1.892s2.235,1.755,1.888,3.146c-0.202,0.812-5.11,19.887-19.133,23.505
			C319.331,667.005,317.792,667.199,316.218,667.199z"/>
		<path fill="#FFBB1B" d="M280.994,829.226c-2.918,0-5.947-0.163-8.999-0.484c-33.502-3.523-55.648-24.281-65.821-61.704
			c-7.189-26.445-8.453-60.543-3.86-104.241c2.036-19.367,7.152-35.2,15.204-47.053c7.348-10.813,17.357-18.648,29.753-23.292
			c0.987-0.366,2.087,0.114,2.483,1.091c0.398,0.975-0.054,2.09-1.021,2.514c-9.954,4.378-18.003,11.331-23.927,20.662
			c-6.582,10.367-10.802,24.057-12.551,40.694c-4.245,40.377-3.101,71.797,3.494,96.058c4.256,15.644,10.86,28.132,19.63,37.121
			c9.916,10.159,22.921,16.147,38.658,17.803c2.719,0.285,5.418,0.429,8.021,0.429c0.005,0,0.007,0,0.01,0
			c14.106,0,26.546-4.294,36.973-12.768c9.24-7.505,17.2-18.524,23.655-32.75c12.831-28.263,17.823-64.918,20.461-90.028
			c3.47-33.014-3.979-55.427-22.775-68.528c-0.862-0.602-1.09-1.777-0.515-2.663c0.576-0.879,1.75-1.142,2.646-0.59
			c23.744,14.581,33.309,40.458,29.248,79.112c-5.956,56.667-15.542,82.813-22.234,97.556c-7.167,15.786-16.06,28.065-26.432,36.496
			C311.201,824.324,297.037,829.226,280.994,829.226z"/>
	</g>
</g>
<g>
	<path fill="#FFBB1B" d="M1922.771,365.217c-3.404,0-7.221-2.25-11.375-6.717c-4.363-4.691-8.135-6.674-11.209-5.893
		c-4.465,1.134-6.244,7.855-6.261,7.923c-0.144,0.557-0.71,0.893-1.269,0.75c-0.557-0.143-0.895-0.709-0.752-1.267
		c0.083-0.325,2.096-7.981,7.761-9.426c3.872-0.988,8.331,1.197,13.257,6.492c4.364,4.692,8.127,6.672,11.182,5.884
		c2.273-0.586,3.826-2.677,4.729-4.329c1.021-1.869,1.455-3.586,1.46-3.604c0.14-0.559,0.706-0.899,1.265-0.759
		c0.559,0.139,0.898,0.705,0.759,1.264c-0.081,0.326-2.054,7.993-7.69,9.447C1924.021,365.14,1923.403,365.217,1922.771,365.217z"/>
	<path fill="#FFBB1B" d="M1908.612,430.343c-1.173,0-2.391-0.065-3.617-0.194c-13.466-1.416-22.367-9.76-26.456-24.802
		c-2.89-10.63-3.397-24.335-1.552-41.898c0.818-7.786,2.875-14.149,6.111-18.914c2.953-4.346,6.977-7.495,11.959-9.361
		c0.396-0.148,0.839,0.046,0.998,0.438c0.16,0.392-0.021,0.84-0.41,1.01c-4.001,1.76-7.236,4.555-9.617,8.305
		c-2.646,4.167-4.342,9.67-5.045,16.357c-1.706,16.228-1.246,28.857,1.404,38.61c1.711,6.287,4.365,11.307,7.891,14.92
		c3.985,4.083,9.213,6.49,15.538,7.155c1.093,0.114,2.178,0.173,3.224,0.173c0.002,0,0.003,0,0.003,0
		c5.671,0,10.671-1.727,14.862-5.133c3.714-3.017,6.913-7.445,9.508-13.163c5.157-11.36,7.164-26.094,8.225-36.187
		c1.395-13.27-1.6-22.279-9.154-27.543c-0.347-0.242-0.438-0.716-0.207-1.07c0.231-0.354,0.703-0.459,1.063-0.238
		c9.544,5.86,13.389,16.262,11.756,31.799c-2.394,22.775-6.247,33.285-8.937,39.211c-2.881,6.346-6.455,11.281-10.624,14.67
		C1920.754,428.373,1915.061,430.343,1908.612,430.343z"/>
</g>
<g>
	<path fill="#FFBB1B" d="M1922.771,572.206c-3.404,0-7.221-2.25-11.375-6.717c-4.363-4.69-8.135-6.674-11.209-5.893
		c-4.465,1.135-6.244,7.855-6.261,7.924c-0.144,0.557-0.71,0.893-1.269,0.75c-0.557-0.143-0.895-0.709-0.752-1.267
		c0.083-0.325,2.096-7.981,7.761-9.427c3.872-0.987,8.331,1.197,13.257,6.492c4.364,4.691,8.127,6.672,11.182,5.884
		c2.273-0.586,3.826-2.677,4.729-4.329c1.021-1.868,1.455-3.586,1.46-3.604c0.14-0.559,0.706-0.898,1.265-0.759
		s0.898,0.705,0.759,1.264c-0.081,0.325-2.054,7.993-7.69,9.447C1924.021,572.129,1923.403,572.206,1922.771,572.206z"/>
	<path fill="#FFBB1B" d="M1908.612,637.332c-1.173,0-2.391-0.065-3.617-0.194c-13.466-1.416-22.367-9.76-26.456-24.802
		c-2.89-10.63-3.397-24.335-1.552-41.897c0.818-7.786,2.875-14.15,6.111-18.914c2.953-4.346,6.977-7.495,11.959-9.361
		c0.396-0.148,0.839,0.046,0.998,0.438c0.16,0.393-0.021,0.84-0.41,1.011c-4.001,1.761-7.236,4.555-9.617,8.306
		c-2.646,4.166-4.342,9.67-5.045,16.356c-1.706,16.228-1.246,28.857,1.404,38.61c1.711,6.287,4.365,11.307,7.891,14.92
		c3.985,4.083,9.213,6.49,15.538,7.155c1.093,0.114,2.178,0.173,3.224,0.173c0.002,0,0.003,0,0.003,0
		c5.671,0,10.671-1.727,14.862-5.133c3.714-3.017,6.913-7.445,9.508-13.163c5.157-11.36,7.164-26.094,8.225-36.187
		c1.395-13.27-1.6-22.279-9.154-27.543c-0.347-0.242-0.438-0.717-0.207-1.07c0.231-0.354,0.703-0.46,1.063-0.238
		c9.544,5.86,13.389,16.262,11.756,31.799c-2.394,22.775-6.247,33.285-8.937,39.211c-2.881,6.346-6.455,11.281-10.624,14.67
		C1920.754,635.362,1915.061,637.332,1908.612,637.332z"/>
</g>
</svg>
