<?xml version="1.0" encoding="utf-8"?>
<!-- Generator: Adobe Illustrator 16.0.0, SVG Export Plug-In . SVG Version: 6.00 Build 0)  -->
<!DOCTYPE svg PUBLIC "-//W3C//DTD SVG 1.1//EN" "http://www.w3.org/Graphics/SVG/1.1/DTD/svg11.dtd">
<svg version="1.1" xmlns="http://www.w3.org/2000/svg" xmlns:xlink="http://www.w3.org/1999/xlink" x="0px" y="0px" width="300px"
	 height="167px" viewBox="0 0 300 167" enable-background="new 0 0 300 167" xml:space="preserve">
<g id="Layer_1">
	<g>
		<g>
			<circle fill="#DD2726" cx="76.014" cy="85.356" r="56.385"/>
			<path fill="#7D1416" d="M76.014,144.103c-32.395,0-58.749-26.352-58.749-58.747c0-32.394,26.354-58.748,58.749-58.748
				c32.393,0,58.748,26.354,58.748,58.748C134.762,117.751,108.407,144.103,76.014,144.103z M76.014,31.336
				c-29.788,0-54.021,24.233-54.021,54.02c0,29.786,24.234,54.021,54.021,54.021c29.787,0,54.021-24.235,54.021-54.021
				C130.035,55.569,105.801,31.336,76.014,31.336z"/>
		</g>
		<g>
			<polygon fill="#FFFFFF" points="83.369,86.528 83.369,48.525 68.658,48.525 68.658,86.528 41.168,86.528 76.014,122.187 
				111.6,86.528 			"/>
			<path fill="#7D1416" d="M75.996,125.55L35.554,84.165h30.74V46.162h19.438v38.002h31.564L75.996,125.55z M46.782,88.89
				l29.248,29.934L105.9,88.89H81.006v-38h-9.984v38H46.782z"/>
		</g>
		<g>
			<path fill="#DD2726" d="M43.513,61.182c0,0,5.044-10.557,14.97-6.775"/>
			<path fill="#7D1416" d="M45.646,62.201l-4.266-2.038c2.068-4.331,8.479-11.568,17.943-7.965l-1.683,4.417
				C49.84,53.644,45.814,61.851,45.646,62.201z"/>
		</g>
		<g>
			<path fill="#DD2726" d="M93.625,53.558c0,0,10.771-4.292,12.484,8.356"/>
			<path fill="#7D1416" d="M103.768,62.23c-0.43-3.168-1.502-5.281-3.189-6.279c-2.576-1.522-6.055-0.206-6.089-0.194l-1.739-4.395
				c0.229-0.09,5.605-2.182,10.19,0.495c3.021,1.763,4.874,5.04,5.51,9.738L103.768,62.23z"/>
		</g>
		<g>
			<defs>
				<path id="SVGID_1_" d="M130.193,85.356c0,29.922-24.26,54.177-54.179,54.177c-29.922,0-54.179-24.254-54.179-54.177
					c0-29.922,24.256-54.179,54.179-54.179C105.934,31.177,130.193,55.434,130.193,85.356z"/>
			</defs>
			<clipPath id="SVGID_2_">
				<use xlink:href="#SVGID_1_"  overflow="visible"/>
			</clipPath>
			<g clip-path="url(#SVGID_2_)">
				<defs>
					<path id="SVGID_3_" d="M76.014,31.336c-29.788,0-54.021,24.233-54.021,54.02c0,29.786,24.234,54.021,54.021,54.021
						c29.787,0,54.021-24.235,54.021-54.021C130.035,55.569,105.801,31.336,76.014,31.336z"/>
				</defs>
				<clipPath id="SVGID_4_">
					<use xlink:href="#SVGID_3_"  overflow="visible"/>
				</clipPath>
				<path clip-path="url(#SVGID_4_)" fill="#BA282E" d="M45.38,133.33c0,0,38.539,9.375,86.31-38.398
					c47.773-47.771,2.596,43.658,2.596,43.658s-36.242,18.906-36.714,18.906c-0.473,0-46.323-4.885-46.323-4.885L45.38,133.33z"/>
			</g>
		</g>
		<g>
			<path fill="#7D1416" d="M80.934,105.759c-15.017,0-25.264-4.992-26.23-5.379L51.495,95c0.334,0.134,33.635,13.222,47.882,0.435
				l3.156,3.519C96.836,104.068,88.91,105.759,80.934,105.759z"/>
		</g>
	</g>
	<g>
		<g id="XMLID_1_">
			<g>
				<path d="M259.554,103.708h3.698l15.398-1.471v-5.533l-4.062-0.284c-7.126-0.27-10.688-0.864-10.688-1.754l-0.324-1.768
					c0-5.412-1.214-15.344-3.644-29.825l-4.021-0.284h-0.688l0.364,4.386v2.901l2.335,28.071L259.554,103.708z M282.415,103.424
					c0.526,1.417-6.141,2.915-6.141,2.915l-17.706,1.471h-1.997c-2.052,0-3.495-8.569-4.346-25.722l-1.673-16.681
					c0,0-0.338-2.146-0.338-3.806c0-1.741,1.565-2.618,4.67-2.618c6.478,0.27,9.717,0.958,9.717,2.051v1.754
					c0,2.267,0.972,9.056,0.972,9.056l2.672,20.486h0.364c16.37-0.662,14.387,7.247,14.387,7.247L282.415,103.424z"/>
				<path fill="#FFFFFF" d="M278.65,102.237l-15.398,1.471h-3.698l-1.633-5.56l-2.335-28.071v-2.901l-0.364-4.386h0.688l4.021,0.284
					c2.43,14.48,3.644,24.413,3.644,29.825l0.324,1.768c0,0.891,3.562,1.484,10.688,1.754l4.062,0.284V102.237z"/>
				<path d="M245.41,71.804l-2.375,10.688c-2.848,10.027-5.884,17.666-9.136,22.942c-0.904,2.591-2.834,3.887-5.776,3.887
					c-1.012,0-3.279-4.305-6.802-12.942c-5.357-13.63-11.512-23.927-11.512-23.927c0-2.78,2.713-4.17,8.151-4.17h2.699
					c1.943,0,4.656,3.765,8.111,11.31h0.378c0.567-6.923,5.074-12.295,5.074-12.619C241.686,68.471,245.41,70.077,245.41,71.804z
					 M239.635,73.113l-3.037-0.985c0,0-3.037,10.095-4.049,16.505l-2.753,0.661h-1.026c-0.324,0-2.011-3.239-5.074-9.703
					l-3.725-6.802h-0.661c-2.267,0.054-3.401,0.27-3.401,0.647c3.171,5.925,7.355,15.412,12.538,28.435l1.025,0.648
					C236.058,89.227,239.445,79.416,239.635,73.113z"/>
				<path fill="#FFFFFF" d="M236.598,72.128l3.037,0.985c-0.189,6.302-3.577,16.114-10.163,29.407l-1.025-0.648
					c-5.183-13.023-9.366-22.51-12.538-28.435c0-0.378,1.134-0.594,3.401-0.647h0.661l3.725,6.802
					c3.063,6.464,4.75,9.703,5.074,9.703h1.026l2.753-0.661C233.562,82.223,236.598,72.128,236.598,72.128z"/>
				<path d="M207.272,82.007l1.471,9.906c-0.904,9.339-1.876,14.008-2.942,14.008l-7.045,1.026c-1.484,0-2.47-0.567-2.956-1.714
					v-1.727l0.284-4.75v-1.714c0-5.412-1.269-9.744-3.806-12.997h-0.283c-1.565,1.377-2.334,3.077-2.334,5.128v3.765l0.283,1.35
					v2.753v6.14c0,1.417-0.891,2.213-2.659,2.375c0,0-1.849,0.364-3.239,0.364h-1.768c-1.876,0-3.252-0.567-4.089-1.714l0.284-5.128
					v-1.35c0-6.019-0.122-10.364-0.594-13.01l3.549-0.297c0.567,2.105,0.85,4.494,0.85,7.166v9.542h3.239l0.284-4.089v-1.728
					l-0.284-6.141c0-5.52,2.457-9.042,7.369-10.567c4.899,2.753,7.342,9.353,7.342,19.784l-0.284,3.766
					c2.349,0,3.522-1.134,3.522-3.401l1.188-6.842c-0.688-6.856-1.875-11.633-3.576-14.333c-2.092-2.51-4.535-3.765-7.328-3.765
					h-0.864c-4.723,0.27-7.085,1.417-7.085,3.441l-0.85,0.648c-0.958,0-2.632-1.363-5.007-4.089l-2.942-1.025
					c-3.198,0-6.14,1.822-8.812,5.479h-0.567c-0.769,0-1.754-2.038-2.956-6.141l3.522-0.364h0.283
					c2.321-2.051,4.67-3.077,7.045-3.077h1.484c2.672,0,5.021,1.147,7.045,3.441h0.283c0-1.282,3.441-2.308,10.324-3.077h0.283
					C200.997,70.995,205.963,77.229,207.272,82.007z"/>
				<path fill="#FFFFFF" d="M204.654,91.913l-1.188,6.842c0,2.267-1.174,3.401-3.522,3.401l0.284-3.766
					c0-10.432-2.443-17.031-7.342-19.784c-4.912,1.525-7.369,5.047-7.369,10.567l0.284,6.141v1.728l-0.284,4.089h-3.239v-9.542
					c0-2.672-0.283-5.061-0.85-7.166c0-4.373-2.254-6.883-6.761-7.544l-2.092,0.378c-0.837,0-1.539,0.594-2.132,1.768l-2.254-0.756
					c2.672-3.657,5.614-5.479,8.812-5.479l2.942,1.025c2.375,2.726,4.048,4.089,5.007,4.089l0.85-0.648
					c0-2.024,2.362-3.171,7.085-3.441h0.864c2.793,0,5.236,1.255,7.328,3.765C202.778,80.279,203.966,85.057,204.654,91.913z"/>
				<path d="M181.428,84.422l-3.549,0.297c-0.378-2.051-0.985-3.09-1.93-3.09l-1.579-0.283c-0.621,0.216-1.795,9.878-1.795,9.878
					l-0.284,2.416l0.284,2.038v1.363c0,3.684,0.297,7.099,0.904,10.243c-0.418,1.363-1.188,2.038-2.335,2.038h-2.956
					c-5.682,0-8.516-1.592-8.516-4.791l-0.297-3.725c0,0-1.295-26.397-2.079-29.366v-1.363c0-1.822,1.471-2.74,4.413-2.74h1.485
					c3.333,0,4.993,1.471,4.993,4.427l-3.522,0.364l-2.375-0.688h-0.284v0.324l0.891,20.851v1.026
					c0.391,1.363,0.58,4.318,0.58,8.839v0.702c0,0.77,1.768,1.336,5.291,1.714l-0.297-8.556v-6.478
					c0.324-5.25,0.985-8.867,1.971-10.837c0.594-1.174,1.295-1.768,2.132-1.768l2.092-0.378
					C179.174,77.54,181.428,80.05,181.428,84.422z"/>
				<path fill="#FFFFFF" d="M168.189,78.269l2.254,0.756c-0.985,1.97-1.646,5.587-1.971,10.837v6.478l0.297,8.556
					c-3.522-0.377-5.291-0.944-5.291-1.714v-0.702c0-4.521-0.189-7.477-0.58-8.839v-1.026l-0.891-20.851V71.44h0.284l2.375,0.688
					c1.201,4.103,2.187,6.141,2.956,6.141H168.189z"/>
			</g>
			<g>
			</g>
		</g>
	</g>
</g>
<g id="Layer_2">
</g>
</svg>
