<?xml version="1.0" encoding="utf-8"?>
<!-- Generator: Adobe Illustrator 16.0.0, SVG Export Plug-In . SVG Version: 6.00 Build 0)  -->
<!DOCTYPE svg PUBLIC "-//W3C//DTD SVG 1.1//EN" "http://www.w3.org/Graphics/SVG/1.1/DTD/svg11.dtd">
<svg version="1.1" id="Layer_1" xmlns="http://www.w3.org/2000/svg" xmlns:xlink="http://www.w3.org/1999/xlink" x="0px" y="0px"
	 width="251.793px" height="84.949px" viewBox="0 0 251.793 84.949" enable-background="new 0 0 251.793 84.949"
	 xml:space="preserve">
<g>
	<path fill="#282828" d="M251.638,5.275c-12.382-3.715-45.195-6.191-66.556-4.953c-20.015,1.161-44.646,7.555-60.268,8.499
		C98.167,8,86.726,1.482,66.71,0.322C45.351-0.916,12.537,1.56,0.155,5.275c0,0-0.62,19.501,0.62,39.004c0,0,6.19,2.477,8.668,9.597
		c2.475,7.118,3.352,30.146,38.652,30.722c37.145,0.606,56.884-1.575,62.871-40.811c0,0,2.363-15.285,14.092-14.024
		c10.229,0,12.538,14.183,12.538,14.183c6.151,41.571,27.952,41.99,65.077,40.652c33.49-1.205,37.939-23.135,40.416-30.253
		c2.479-7.12,7.931-10.065,7.931-10.065C252.257,24.776,251.638,5.275,251.638,5.275z M102.997,42.703
		C98.519,62.539,91.27,75.46,69.115,76.352c-22.416,0.901-48.604,3.507-54.212-31.779C13.449,35.428,9.06,12.326,32.194,10.69
		c23.134-1.636,50.474,2.104,57.95,4.207C97.623,17,108.363,18.93,102.997,42.703z M237.198,43.396
		c-2.231,29.164-24.825,32.321-38.877,33.022c-14.053,0.702-48.368,1.598-52.694-29.742c-3.632-26.3,6.088-30.682,9.602-31.618
		c18.036-4.808,52.46-6.088,63.701-4.45C230.172,12.247,239.729,10.285,237.198,43.396z"/>
	<path fill="#282828" d="M0.195,6.286c12.382-3.715,45.47-4.366,66.83-3.127c20.016,1.161,31.456,7.679,58.104,8.499
		c15.623-0.943,40.253-7.338,60.268-8.499c21.226-1.23,53.403-0.548,65.965,3.127c-0.035-1.765,0.276-1.01,0.276-1.01
		c-12.382-3.715-45.195-6.191-66.556-4.953c-20.015,1.161-44.646,7.555-60.268,8.499C98.167,8,86.726,1.482,66.71,0.322
		C45.351-0.916,12.537,1.56,0.155,5.275L0.195,6.286z"/>
	<path opacity="0.08" fill="#FFFFFF" d="M44.333,15.014c-4.166,0-8.137,0.131-11.807,0.392c-5.17,0.365-8.779,1.928-11.038,4.776
		c-4.759,6.003-2.995,16.959-2.048,22.845h2.025c0,0-2.123-16.645,2.521-20.828c5.645-5.083,20.483-5.514,20.483-5.514
		L44.333,15.014z"/>
	<linearGradient id="SVGID_1_" gradientUnits="userSpaceOnUse" x1="13.3403" y1="4.7285" x2="93.3858" y2="67.7563">
		<stop  offset="0" style="stop-color:#333332"/>
		<stop  offset="1" style="stop-color:#1F1515"/>
	</linearGradient>
	<path fill="url(#SVGID_1_)" d="M14.856,44.58c-0.922-5.386-1.696-10.869-1.198-16.361c0.248-2.732,0.839-5.468,2.018-7.981
		c1.166-2.511,2.979-4.75,5.274-6.345c2.285-1.611,4.96-2.601,7.682-3.122c1.36-0.266,2.748-0.421,4.118-0.509
		c1.368-0.098,2.74-0.176,4.11-0.239c5.485-0.255,10.979-0.162,16.458,0.057c10.955,0.539,21.878,1.71,32.662,3.704
		c2.703,0.5,5.343,1.26,7.969,2.056c2.604,0.821,5.203,2.053,7.088,4.135c1.902,2.059,2.92,4.781,3.342,7.5
		c0.43,2.738,0.356,5.519,0.078,8.253c-0.283,2.739-0.792,5.449-1.405,8.122c-0.612,2.678-1.297,5.339-2.132,7.962
		C99.255,57.036,97,62.209,93.4,66.481c-1.787,2.132-3.907,3.993-6.271,5.472c-2.359,1.487-4.953,2.577-7.62,3.344
		c-2.67,0.768-5.421,1.2-8.175,1.418c-2.771,0.189-5.48,0.251-8.228,0.376c-5.474,0.195-10.989,0.338-16.478-0.254
		c-5.462-0.59-10.979-1.883-15.785-4.686c-4.821-2.751-8.668-7.022-11.168-11.911C17.138,55.353,15.691,49.986,14.856,44.58z
		 M14.949,44.564c0.891,5.387,2.346,10.746,4.959,15.553c2.584,4.801,6.463,8.915,11.242,11.492
		c4.769,2.609,10.168,3.828,15.568,4.331c5.42,0.498,10.887,0.4,16.35,0.176c2.724-0.13,5.492-0.201,8.186-0.391
		c2.702-0.223,5.385-0.654,7.986-1.376c2.598-0.73,5.107-1.771,7.393-3.192c2.289-1.413,4.344-3.195,6.09-5.251
		c3.5-4.124,5.79-9.164,7.506-14.317c0.86-2.585,1.576-5.224,2.217-7.878c0.646-2.655,1.182-5.331,1.498-8.037
		c0.299-2.703,0.394-5.445-0.004-8.13c-0.391-2.668-1.354-5.312-3.179-7.319c-1.804-2.03-4.327-3.263-6.903-4.101
		c-2.604-0.823-5.252-1.528-7.939-2.018c-5.373-1.013-10.812-1.675-16.258-2.193c-5.447-0.517-10.909-0.863-16.373-1.05
		c-5.463-0.212-10.934-0.206-16.393-0.021c-2.728,0.131-5.475,0.167-8.125,0.656c-2.648,0.495-5.248,1.375-7.482,2.884
		c-2.242,1.489-4.045,3.608-5.234,6.039c-1.203,2.43-1.846,5.118-2.149,7.824C13.307,33.69,14.081,39.175,14.949,44.564z"/>
	<linearGradient id="SVGID_2_" gradientUnits="userSpaceOnUse" x1="244.271" y1="8.4688" x2="157.2915" y2="62.0429">
		<stop  offset="0" style="stop-color:#333332"/>
		<stop  offset="1" style="stop-color:#1F1515"/>
	</linearGradient>
	<path fill="url(#SVGID_2_)" d="M155.215,15.012c5.428-1.451,10.982-2.334,16.541-3.102c5.562-0.762,11.151-1.313,16.753-1.725
		c5.601-0.417,11.216-0.63,16.836-0.663c2.811-0.021,5.623,0.04,8.435,0.201c1.406,0.083,2.812,0.189,4.218,0.358
		c1.413,0.188,2.771,0.385,4.173,0.546c2.767,0.359,5.653,0.703,8.247,2.025c1.285,0.658,2.438,1.588,3.344,2.711
		c0.913,1.12,1.583,2.405,2.094,3.731c1.01,2.667,1.44,5.485,1.685,8.285c0.239,2.806,0.277,5.621,0.209,8.429
		c-0.221,5.596-0.396,11.266-1.912,16.72c-1.459,5.431-4.234,10.604-8.398,14.477c-4.127,3.914-9.417,6.405-14.866,7.837
		c-5.471,1.458-11.139,1.918-16.745,2.133c-5.617,0.237-11.275,0.169-16.88-0.55c-5.593-0.719-11.163-2.121-16.266-4.642
		c-5.084-2.502-9.653-6.287-12.649-11.159c-3.048-4.841-4.516-10.501-4.99-16.095c-0.557-5.586-0.731-11.288,0.396-16.824
		c0.59-2.744,1.495-5.473,3.097-7.809C150.102,17.561,152.469,15.707,155.215,15.012z M155.241,15.104
		c-2.719,0.712-5.039,2.562-6.571,4.886c-1.556,2.324-2.461,5.029-2.974,7.768c-1.007,5.51-0.719,11.167-0.036,16.701
		c0.619,5.54,2.109,11.026,5.132,15.685c2.974,4.668,7.347,8.346,12.322,10.768c4.976,2.458,10.451,3.79,15.962,4.537
		c5.524,0.741,11.129,0.843,16.717,0.639c5.591-0.197,11.188-0.579,16.597-1.947c5.386-1.345,10.599-3.723,14.696-7.512
		c4.117-3.763,6.9-8.83,8.394-14.197c1.555-5.382,1.793-11.04,1.941-16.629c0.049-2.799,0.002-5.604-0.269-8.386
		c-0.285-2.773-0.762-5.553-1.786-8.128c-0.518-1.279-1.184-2.5-2.062-3.545c-0.875-1.048-1.965-1.898-3.186-2.5
		c-2.46-1.215-5.275-1.504-8.042-1.837c-1.386-0.152-2.807-0.35-4.174-0.526c-1.382-0.159-2.774-0.257-4.169-0.333
		c-2.79-0.144-5.59-0.184-8.389-0.206c-5.599-0.026-11.202,0.167-16.8,0.437C177.37,11.409,166.128,12.365,155.241,15.104z"/>
</g>
</svg>
