<?xml version="1.0" encoding="utf-8"?>
<!-- Generator: Adobe Illustrator 16.0.0, SVG Export Plug-In . SVG Version: 6.00 Build 0)  -->
<!DOCTYPE svg PUBLIC "-//W3C//DTD SVG 1.1//EN" "http://www.w3.org/Graphics/SVG/1.1/DTD/svg11.dtd">
<svg version="1.1" id="Layer_1" xmlns="http://www.w3.org/2000/svg" xmlns:xlink="http://www.w3.org/1999/xlink" x="0px" y="0px"
	 width="48.48px" height="52.312px" viewBox="0 0 48.48 52.312" enable-background="new 0 0 48.48 52.312" xml:space="preserve">
<g>
	<path fill="#FBAD18" d="M48.48,21.973c-1.383,0.118-2.777,0.393-4.184,0.826c-1.406,0.434-2.484,1.12-3.234,2.057
		c-0.492,0.562-0.99,1.395-1.493,2.496c-0.503,1.102-1.105,2.403-1.807,3.902c-0.702,1.5-1.415,2.977-2.14,4.43
		c-0.725,1.454-1.661,2.906-2.807,4.359c0.936,1.125,2.084,2.35,3.441,3.674c1.358,1.324,2.518,2.28,3.478,2.865
		c0.936,0.54,2.265,0.997,3.986,1.371c1.721,0.375,3.132,0.586,4.232,0.633v2.496H33.469l-5.238-5.977
		c-0.773,0.844-1.658,1.717-2.654,2.619c-0.997,0.902-2.045,1.682-3.146,2.338c-1.219,0.703-2.443,1.253-3.674,1.652
		c-1.23,0.398-2.678,0.598-4.342,0.598c-1.735,0-3.458-0.252-5.168-0.756c-1.711-0.504-3.27-1.306-4.676-2.408
		C3.211,48.071,2.109,46.688,1.266,45S0,41.297,0,38.953c0-2.906,0.768-5.537,2.303-7.893c1.535-2.355,4.4-4.857,8.596-7.506
		C9,21.047,7.523,18.879,6.469,17.051s-1.582-3.879-1.582-6.152c0-1.617,0.322-3.099,0.967-4.447
		c0.645-1.348,1.552-2.525,2.725-3.533c1.078-0.914,2.391-1.629,3.938-2.145C14.062,0.258,15.632,0,17.227,0
		c1.875,0,3.521,0.299,4.939,0.896c1.418,0.598,2.572,1.377,3.463,2.338c0.82,0.891,1.447,1.922,1.881,3.094
		c0.434,1.172,0.65,2.344,0.65,3.516c0,2.812-0.871,5.233-2.611,7.26c-1.741,2.027-4.143,3.85-7.204,5.467
		c2.201,2.977,4.355,5.69,6.462,8.139c2.107,2.449,4.133,4.857,6.077,7.225c1.565-2.508,2.779-4.869,3.644-7.084
		c0.864-2.215,1.296-4.166,1.296-5.854c0-0.75-0.545-1.341-1.635-1.775c-1.09-0.434-2.596-0.849-4.518-1.248v-2.496H48.48V21.973z
		 M26.367,43.066c-2.18-2.765-4.635-5.795-7.365-9.088c-2.73-3.292-4.917-6.076-6.557-8.35c-1.898,1.313-3.24,2.854-4.025,4.623
		c-0.786,1.77-1.178,3.792-1.178,6.064c0,3.188,0.908,5.831,2.725,7.928c1.816,2.098,4.248,3.146,7.295,3.146
		c1.71,0,3.393-0.369,5.045-1.107S25.312,44.473,26.367,43.066z M23.625,10.547c0-2.391-0.526-4.224-1.578-5.502
		c-1.051-1.277-2.547-1.916-4.487-1.916c-1.099,0-2.01,0.223-2.734,0.668c-0.725,0.445-1.344,1.008-1.858,1.688
		c-0.467,0.656-0.806,1.359-1.017,2.109c-0.21,0.75-0.315,1.418-0.315,2.004c0,1.617,0.421,3.252,1.265,4.904
		c0.843,1.652,2.154,3.651,3.934,5.994c2.403-1.359,4.136-2.83,5.198-4.412C23.094,14.502,23.625,12.656,23.625,10.547z"/>
</g>
</svg>
